<svg id="Layer_1" data-name="Layer 1" xmlns="http://www.w3.org/2000/svg" viewBox="0 0 733.94 800">
	<title>vector1</title>
	<defs>
		<style>

			svg{
			height: 300px;
			width: auto;
			display: block;
  			margin-left: auto;
  			margin-right: auto;
  			width: 50%;
  			padding-top: 25%;
			}

	path {
	fill: #7491c1;
	animation: animate 5s linear forwards;
	animation-direction: alternate;
	animation-iteration-count: infinite;
	}

	@keyframes animate {
  0% {
    transform: rotateY(60deg);
    opacity: .2;
    fill: #7491c1;
  }
    20% {
    transform: rotateY(120deg);
    opacity: .4;
    fill: orange;
  }
    40% {
    transform: rotateY(180deg);
    opacity: .6;
    fill: purple;
  }
    60% {
    transform: rotateY(240deg);
    opacity: .8;
    fill: green;
  }
    80% {
    transform: rotateY(300deg);
    opacity: .9;
    fill: grey;
  }
    100% {
    transform: rotateY(360deg);
    opacity: 1;
    fill: red;
  }

}


      

		</style>
	</defs>

	<path id="tag1" d="M523,134V123h-3.69L519,109.33,25.06,122.51,26,157.58V616H523V606c130.34,0,236-105.66,236-236S653.34,134,523,134Zm0,226c.17,0,.33,0,.5,0a9.5,9.5,0,0,1,0,19c-.17,0-.33,0-.5,0Zm.5,77H523V401h.5a31.5,31.5,0,0,0,0-63H523V304h.5a66.5,66.5,0,0,1,0,133Z" transform="translate(-25.06 -109.33)"/>
</svg>