<svg id="Layer_1" data-name="Layer 1" xmlns="http://www.w3.org/2000/svg" viewBox="0 0 400 800">
<title>vector3</title>

	<defs>
		<style>

		svg{
			height: 400px;
			width: auto;
			display: block;
  			margin-left: auto;
  			margin-right: auto;
  			width: 100%;
  			
  		
		
		}

		path {
		fill: yellow;
		animation: animate 12s linear forwards;
		animation-direction: alternate;
		animation-iteration-count: infinite;
		stroke: purple;
		stroke-width: 3px;
		}

@keyframes animate{
        0% {transform: translate(0px, 0px);
        	
        }
        20% {transform: translate(2px, 4px) rotateX(0deg);
        	 
        }
        40% {transform: translate(1px, -6px) rotateZ(14deg);
				
        }

        60% {transform: translate(6px, 14px) rotateX(24deg);
				
        }


        80% {transform: translate(0px, -2px) rotateZ(30deg);
        	
        }

        100% {transform: translate(8px, -7x) rotateY(36deg);
			
        }
}


</style>
</defs>



<path d="M566,354V89H215V354H351v56h.26A18.35,18.35,0,0,0,348,420.46v5.08A18.45,18.45,0,0,0,366.46,444h57.08A18.45,18.45,0,0,0,442,425.54v-5.08A18.37,18.37,0,0,0,438,409V354Zm-19-5a3,3,0,1,1,3-3A3,3,0,0,1,547,349ZM226,338V100H553V338Z" transform="translate(-215 -89)" fill="#070606"/>
</svg>